Normalized EMG Linear Envelopes
nRows=237
nColumns=4

endheader
time	 med_gas_r	  soleus_r	 tib_ant_r	
3.45968	  0.093662	  0.042303	  0.014088	
3.49294	  0.089720	  0.044019	  0.013906	
3.52621	  0.086764	  0.045693	  0.013784	
3.55948	  0.085338	  0.047255	  0.013753	
3.59274	  0.085239	  0.048770	  0.013811	
3.62601	  0.085751	  0.050380	  0.013938	
3.65927	  0.086055	  0.052161	  0.014106	
3.69254	  0.085562	  0.054049	  0.014289	
3.72581	  0.084072	  0.055883	  0.014464	
3.75907	  0.081786	  0.057503	  0.014618	
3.79234	  0.079230	  0.058767	  0.014756	
3.8256	  0.077064	  0.059489	  0.014903	
3.85887	  0.075843	  0.059464	  0.015090	
3.89214	  0.075776	  0.058645	  0.015325	
3.9254	  0.076655	  0.057318	  0.015570	
3.95867	  0.077981	  0.056023	  0.015747	
3.99194	  0.079213	  0.055242	  0.015797	
4.0252	  0.080003	  0.055087	  0.015722	
4.05847	  0.080284	  0.055289	  0.015607	
4.09173	  0.080211	  0.055459	  0.015568	
4.125	  0.080018	  0.055391	  0.015696	
4.15827	  0.079923	  0.055146	  0.016017	
4.19153	  0.080107	  0.054908	  0.016497	
4.2248	  0.080700	  0.054785	  0.017071	
4.25806	  0.081730	  0.054744	  0.017668	
4.29133	  0.083031	  0.054707	  0.018217	
4.3246	  0.084227	  0.054673	  0.018640	
4.35786	  0.084864	  0.054733	  0.018857	
4.39113	  0.084660	  0.054977	  0.018815	
4.4244	  0.083691	  0.055414	  0.018522	
4.45766	  0.082351	  0.056002	  0.018061	
4.49093	  0.081115	  0.056721	  0.017551	
4.52419	  0.080282	  0.057567	  0.017094	
4.55746	  0.079894	  0.058438	  0.016740	
4.59073	  0.079825	  0.059067	  0.016496	
4.62399	  0.079925	  0.059127	  0.016347	
4.65726	  0.080107	  0.058465	  0.016262	
4.69052	  0.080355	  0.057237	  0.016180	
4.72379	  0.080660	  0.055840	  0.016035	
4.75706	  0.080947	  0.054682	  0.015789	
4.79032	  0.081032	  0.053989	  0.015472	
4.82359	  0.080682	  0.053756	  0.015166	
4.85685	  0.079745	  0.053822	  0.014955	
4.89012	  0.078289	  0.053986	  0.014873	
4.92339	  0.076619	  0.054070	  0.014906	
4.95665	  0.075131	  0.053937	  0.015030	
4.98992	  0.074093	  0.053498	  0.015249	
5.02319	  0.073519	  0.052719	  0.015590	
5.05645	  0.073241	  0.051630	  0.016067	
5.08972	  0.073103	  0.050320	  0.016641	
5.12298	  0.073107	  0.048920	  0.017215	
5.15625	  0.073374	  0.047616	  0.017674	
5.18952	  0.073957	  0.046658	  0.017936	
5.22278	  0.074686	  0.046346	  0.017975	
5.25605	  0.075182	  0.046961	  0.017793	
5.28931	  0.075074	  0.048663	  0.017376	
5.32258	  0.074246	  0.051392	  0.016649	
5.35585	  0.072919	  0.054808	  0.015488	
5.38911	  0.071509	  0.058304	  0.013756	
5.42238	  0.070362	  0.061135	  0.011365	
5.45565	  0.069591	  0.062667	  0.008342	
5.48891	  0.069121	  0.062632	  0.004937	
5.52218	  0.068900	  0.061246	  0.001738	
5.55544	  0.069121	  0.059124	 -0.000226	
5.58871	  0.070322	  0.057133	  0.000577	
5.62198	  0.073367	  0.056327	  0.006203	
5.65524	  0.079378	  0.057976	  0.019219	
5.68851	  0.089667	  0.063546	  0.042541	
5.72177	  0.105550	  0.074500	  0.078966	
5.75504	  0.127929	  0.091927	  0.130293	
5.78831	  0.156714	  0.116176	  0.196272	
5.82157	  0.190471	  0.146614	  0.273887	
5.85484	  0.226679	  0.181578	  0.357461	
5.8881	  0.262561	  0.218537	  0.439703	
5.92137	  0.295978	  0.254534	  0.513320	
5.95464	  0.325831	  0.286902	  0.572545	
5.9879	  0.351897	  0.313960	  0.614015	
6.02117	  0.374447	  0.335341	  0.636872	
6.05444	  0.394034	  0.351780	  0.642343	
6.0877	  0.411388	  0.364577	  0.633279	
6.12097	  0.427117	  0.375016	  0.613801	
6.15423	  0.441269	  0.383902	  0.588900	
6.1875	  0.453353	  0.391405	  0.563757	
6.22077	  0.463151	  0.397359	  0.542839	
6.25403	  0.471687	  0.401882	  0.529003	
6.2873	  0.481187	  0.405750	  0.522956	
6.32056	  0.493679	  0.410025	  0.523390	
6.35383	  0.509276	  0.415208	  0.527907	
6.3871	  0.525774	  0.420808	  0.534336	
6.42036	  0.540069	  0.425903	  0.541598	
6.45363	  0.550349	  0.430288	  0.549545	
6.4869	  0.557369	  0.435176	  0.558176	
6.52016	  0.563923	  0.442850	  0.567218	
6.55343	  0.572967	  0.455427	  0.576437	
6.58669	  0.585668	  0.473396	  0.585956	
6.61996	  0.600529	  0.494723	  0.595728	
6.65323	  0.614121	  0.515208	  0.604631	
6.68649	  0.623090	  0.530288	  0.610586	
6.71976	  0.626399	  0.537552	  0.612145	
6.75302	  0.626354	  0.538298	  0.610239	
6.78629	  0.627349	  0.536760	  0.608270	
6.81956	  0.632819	  0.537258	  0.610255	
6.85282	  0.642526	  0.541341	  0.618429	
6.88609	  0.652440	  0.547113	  0.631913	
6.91935	  0.657382	  0.551035	  0.647091	
6.95262	  0.654310	  0.550400	  0.659338	
6.98589	  0.643777	  0.544545	  0.665238	
7.01915	  0.628938	  0.534382	  0.664197	
7.05242	  0.613455	  0.521277	  0.658617	
7.08569	  0.600082	  0.506506	  0.652566	
7.11895	  0.590631	  0.491545	  0.649876	
7.15222	  0.586706	  0.478511	  0.652824	
7.18548	  0.590077	  0.469969	  0.661934	
7.21875	  0.602218	  0.468100	  0.676586	
7.25202	  0.623392	  0.473985	  0.695816	
7.28528	  0.652002	  0.487558	  0.718838	
7.31855	  0.684628	  0.507994	  0.745021	
7.35181	  0.716835	  0.533961	  0.773342	
7.38508	  0.744525	  0.563526	  0.801703	
7.41835	  0.765218	  0.594030	  0.826720	
7.45161	  0.778423	  0.622297	  0.844399	
7.48488	  0.784892	  0.645208	  0.851497	
7.51815	  0.785442	  0.660291	  0.846839	
7.55141	  0.780234	  0.666012	  0.831877	
7.58468	  0.768882	  0.661832	  0.810233	
7.61794	  0.751116	  0.648316	  0.786513	
7.65121	  0.727524	  0.627354	  0.764920	
7.68448	  0.699954	  0.602140	  0.748190	
7.71774	  0.671292	  0.576555	  0.737234	
7.75101	  0.644693	  0.554109	  0.731465	
7.78427	  0.622790	  0.537034	  0.729475	
7.81754	  0.607499	  0.526072	  0.729703	
7.85081	  0.600367	  0.520988	  0.730952	
7.88407	  0.602723	  0.521270	  0.732650	
7.91734	  0.615081	  0.526402	  0.734668	
7.9506	  0.636165	  0.535597	  0.736743	
7.98387	  0.662460	  0.547376	  0.738026	
8.01714	  0.688724	  0.559492	  0.737360	
8.0504	  0.709251	  0.569361	  0.734246	
8.08367	  0.719457	  0.574820	  0.729664	
8.11694	  0.717340	  0.574860	  0.726017	
8.1502	  0.704279	  0.570024	  0.726209	
8.18347	  0.684626	  0.562373	  0.732468	
8.21673	  0.664293	  0.555133	  0.745485	
8.25	  0.649092	  0.552033	  0.764032	
8.28327	  0.643386	  0.556186	  0.785109	
8.31653	  0.649043	  0.568627	  0.804670	
8.3498	  0.664755	  0.587350	  0.818881	
8.38306	  0.686409	  0.607953	  0.825432	
8.41633	  0.708910	  0.625931	  0.824097	
8.4496	  0.728455	  0.638940	  0.816066	
8.48286	  0.743512	  0.647113	  0.802736	
8.51613	  0.753916	  0.651384	  0.785179	
8.5494	  0.759492	  0.651911	  0.764699	
8.58266	  0.759768	  0.648280	  0.743398	
8.61593	  0.754719	  0.640820	  0.723674	
8.64919	  0.745274	  0.630983	  0.706984	
8.68246	  0.732938	  0.620032	  0.693246	
8.71573	  0.719190	  0.607604	  0.681539	
8.74899	  0.705448	  0.592069	  0.671404	
8.78226	  0.693532	  0.572672	  0.663672	
8.81552	  0.685798	  0.551433	  0.660429	
8.84879	  0.684434	  0.532892	  0.664285	
8.88206	  0.690276	  0.521819	  0.677190	
8.91532	  0.702156	  0.520853	  0.699210	
8.94859	  0.717503	  0.529854	  0.727982	
8.98185	  0.733788	  0.547041	  0.759384	
9.01512	  0.749621	  0.570404	  0.789026	
9.04839	  0.764626	  0.598074	  0.813509	
9.08165	  0.778523	  0.627670	  0.830777	
9.11492	  0.790434	  0.655783	  0.839912	
9.14819	  0.799084	  0.678569	  0.841049	
9.18145	  0.803642	  0.693308	  0.835487	
9.21472	  0.804514	  0.699802	  0.825503	
9.24798	  0.803561	  0.700611	  0.813706	
9.28125	  0.803587	  0.700022	  0.802388	
9.31452	  0.807137	  0.702262	  0.793269	
9.34778	  0.815068	  0.709550	  0.787486	
9.38105	  0.825843	  0.720803	  0.785511	
9.41431	  0.836414	  0.732024	  0.787206	
9.44758	  0.844216	  0.738601	  0.792223	
9.48085	  0.848437	  0.737945	  0.800218	
9.51411	  0.849240	  0.730278	  0.810209	
9.54738	  0.845814	  0.717104	  0.819478	
9.58065	  0.835514	  0.699256	  0.823574	
9.61391	  0.815243	  0.676531	  0.818261	
9.64718	  0.783900	  0.648936	  0.802162	
9.68044	  0.743730	  0.617904	  0.777855	
9.71371	  0.699563	  0.586197	  0.750361	
9.74698	  0.656752	  0.556815	  0.724211	
9.78024	  0.619575	  0.532082	  0.701305	
9.81351	  0.590997	  0.513503	  0.680916	
9.84677	  0.573214	  0.501930	  0.661521	
9.88004	  0.567651	  0.497361	  0.642812	
9.91331	  0.574035	  0.498531	  0.626228	
9.94657	  0.589546	  0.503102	  0.613701	
9.97984	  0.609225	  0.508706	  0.605829	
10.0131	  0.627565	  0.513886	  0.601070	
10.0464	  0.640139	  0.517913	  0.596482	
10.0796	  0.644390	  0.519764	  0.589197	
10.1129	  0.639551	  0.517541	  0.577475	
10.1462	  0.625977	  0.508912	  0.560740	
10.1794	  0.604091	  0.491907	  0.538765	
10.2127	  0.573428	  0.465212	  0.510663	
10.246	  0.532690	  0.428194	  0.474587	
10.2792	  0.481149	  0.381352	  0.428681	
10.3125	  0.420387	  0.327081	  0.372851	
10.3458	  0.354778	  0.269749	  0.310011	
10.379	  0.290214	  0.214595	  0.245591	
10.4123	  0.232091	  0.166082	  0.185511	
10.4456	  0.183965	  0.126824	  0.134025	
10.4788	  0.147333	  0.097530	  0.092852	
10.5121	  0.122079	  0.077559	  0.061739	
10.5454	  0.106913	  0.065465	  0.039567	
10.5786	  0.099638	  0.059291	  0.025057	
10.6119	  0.097509	  0.056832	  0.016873	
10.6452	  0.097848	  0.056067	  0.013527	
10.6784	  0.098717	  0.055639	  0.013441	
10.7117	  0.099189	  0.055049	  0.015170	
10.745	  0.099080	  0.054404	  0.017601	
10.7782	  0.098436	  0.053979	  0.020011	
10.8115	  0.097256	  0.053911	  0.022002	
10.8448	  0.095580	  0.054185	  0.023391	
10.878	  0.093644	  0.054753	  0.024126	
10.9113	  0.091827	  0.055621	  0.024236	
10.9446	  0.090400	  0.056843	  0.023822	
10.9778	  0.089330	  0.058483	  0.023051	
11.0111	  0.088312	  0.060577	  0.022118	
11.0444	  0.086971	  0.063115	  0.021213	
11.0776	  0.085128	  0.066031	  0.020477	
11.1109	  0.082968	  0.069216	  0.019976	
11.1442	  0.081025	  0.072555	  0.019685	
11.1774	  0.079979	  0.075971	  0.019498	
11.2107	  0.080364	  0.079460	  0.019282	
11.244	  0.082341	  0.083064	  0.018944	
11.2772	  0.085672	  0.086778	  0.018473	
11.3105	  0.089829	  0.090449	  0.017918	
